<svg width="32" height="32" viewBox="0 0 100 100" fill="none" xmlns="http://www.w3.org/2000/svg">
  <!-- Bull/Ox Head Silhouette - Angular and geometric -->
  <path 
    d="M25 45 L25 60 L30 70 L35 75 L50 75 L55 70 L60 60 L60 45 L58 35 L55 28 L50 25 L45 22 L40 20 L35 18 L30 20 L25 22 L20 25 L18 28 L15 35 L15 45 Z" 
    fill="#1B5E20"
  />
  <!-- Prominent upward-curving horns -->
  <path 
    d="M30 20 L25 8 L20 5 L18 10 L22 18 Z M55 20 L60 8 L65 5 L67 10 L63 18 Z" 
    fill="#1B5E20"
  />
  <!-- Strong angular jawline -->
  <path 
    d="M20 50 L15 55 L12 60 L15 65 L20 68 L25 70 L30 68 L35 65 L38 60 L35 55 L30 50 Z" 
    fill="#1B5E20"
  />
</svg>

